<svg xmlns="http://www.w3.org/2000/svg" xmlns:xlink="http://www.w3.org/1999/xlink" width="1080" zoomAndPan="magnify" viewBox="0 0 810 809.999993" height="1080" preserveAspectRatio="xMidYMid meet" version="1.0"><path fill="#294755" d="M 404.722656 0.277344 C 181.234375 0.277344 0 181.511719 0 405 C 0 628.488281 181.234375 809.722656 404.722656 809.722656 C 628.207031 809.722656 809.445312 628.488281 809.445312 405 C 810 181.511719 629.320312 0.277344 404.722656 0.277344 Z M 404.722656 0.277344 " fill-opacity="1" fill-rule="nonzero"/><path fill="#ffffff" d="M 545.375 217.648438 C 533.699219 217.648438 522.582031 222.097656 513.6875 230.4375 L 404.722656 339.398438 L 295.757812 230.4375 C 286.863281 222.097656 275.746094 217.648438 264.070312 217.648438 C 252.394531 217.648438 241.277344 222.097656 232.382812 230.4375 L 229.601562 233.214844 C 212.367188 250.449219 212.367188 278.800781 229.601562 296.035156 L 339.121094 405 L 230.15625 513.964844 C 212.925781 531.199219 212.925781 559.550781 230.15625 576.785156 L 232.9375 579.5625 C 241.277344 587.902344 252.953125 592.351562 264.625 592.351562 C 276.300781 592.351562 287.417969 587.902344 296.3125 579.5625 L 405.277344 470.601562 L 514.242188 579.5625 C 522.582031 587.902344 534.253906 592.351562 545.929688 592.351562 C 557.605469 592.351562 568.722656 587.902344 577.617188 579.5625 L 580.398438 576.785156 C 597.632812 559.550781 597.632812 531.199219 580.398438 513.964844 L 470.324219 405 L 579.285156 296.035156 C 596.519531 278.800781 596.519531 250.449219 579.285156 233.214844 L 576.507812 230.4375 C 568.167969 222.097656 556.492188 217.648438 545.375 217.648438 Z M 545.375 217.648438 " fill-opacity="1" fill-rule="nonzero"/></svg>